**ABCDEFGHIJKLMNOPQRSTUVWXYZabcdefghijklmnopqrstuvwxyz**************************
**PARASOLID !"#$%&'()*+,-./:;<=>?@[\]^_`{|}~0123456789**************************
**PART1;
MC=AMD64;
MC_MODEL=Intel64 Family 6 Model 79 Stepping 1, GenuineIntel;
MC_ID=unknown;
OS=Windows_NT;
OS_RELEASE=unknown;
FRU=Parasolid Version 29.0, build 166,  7-11-2016;
APPL=SOLIDWORKS 2017-2016280;
SITE=;
USER=unknown;
FORMAT=text;
GUISE=transmit;
KEY=Bottom;
FILE=Bottom.x_t;
DATE=Tue Sep 17 16:39:09 2019;
**PART2;
SCH=SCH_2900166_28101;
USFLD_SIZE=0;
**PART3;
**END_OF_HEADER*****************************************************************
T51 : TRANSMIT FILE created by modeller version 290016623 SCH_2900166_28101_1300
6203 0 12 33 CCCCCCI4 mesh1006 0 I8 polyline1008 0 CCCCCCCDI5 owner1040 0 CCCCCC
I13 boundary_mesh1006 0 I17 boundary_polyline1008 0 CCCA16 index_map_offset0 0 1
 dA9 index_map82 0 A17 node_id_index_map82 0 A20 schema_embedding_map82 0 A5 chi
ld12 0 A14 lowest_node_id0 0 1 dZ1 1574 0 2 0 0 0 0 0 0 1e3 1e-8 0 3 0 1 0 1 1 4
 5 6 0 0 0 7 8 0 0 0 0 0 0 0 70 11 CI9 list_type0 0 1 uI10 notransmit0 0 1 lCCCD
CCDI12 finger_index0 0 1 dI12 finger_block1012 0 CZ2 0 4 T1 0 0 2 20 1 9 9 13 25
5 4 29 0 1 0 10 0 0 11 0 51 255 5 28 0 12 13 0 0 +0 -.0047625 0 0 1 0 .01905 0 0
 1 31 255 6 1315 0 14 15 0 0 +.00653072211441885 -.0036421195430437 .00778301154
208844 0 -1 0 0 0 -1 .0011303 19 8 CCCCCCCA5 owner12 0 Z7 7 0 1 11 0 16 V0 16 25
5 8 4 0 ?17 0 18 19 0 0 1 17 255 17 0 20 17 17 0 21 8 0 0 +16 18 18 0 ?22 8 23 2
4 0 0 1 31 19 5 0 8 25 24 0 +0 -.0047625 0 0 1 0 0 0 1 .01905 31 25 81 0 26 27 1
9 0 +0 0 0 0 1 0 0 0 1 .011684 31 24 23 0 18 19 28 0 +0 0 0 0 1 0 0 0 1 .01905 3
1 28 633 0 29 24 30 0 +-.0034749246561888 -.0026443804569563 -.00954727702718483
 0 1 0 0 0 1 .0011303 16 29 648 0 ?31 32 33 28 0 0 1 31 30 718 0 34 28 35 0 +-.0
034749246561888 -.0036421195430437 -.00954727702718483 0 -1 0 0 0 -1 .0011303 16
 34 724 0 ?36 37 38 30 0 0 1 31 35 945 0 39 30 40 0 +.003474924656190345 -.00264
43804569563 -.0095472770271871 0 1 0 0 0 1 .0011303 16 39 961 0 ?41 42 43 35 0 0
 1 31 40 1025 0 44 35 45 0 +-.00653072211441155 -.0026443804569563 .007783011542
08949 0 1 0 0 0 1 .0011303 16 44 1031 0 ?46 47 48 40 0 0 1 31 45 1089 0 49 40 50
 0 +.00653072211441885 -.0026443804569563 .00778301154208844 0 1 0 0 0 1 .001130
3 16 49 1102 0 ?51 52 53 45 0 0 1 31 50 1174 0 54 45 15 0 +.003474924656190345 -
.0036421195430437 -.0095472770271871 0 -1 0 0 0 -1 .0011303 16 54 1180 0 ?55 56
 57 50 0 0 1 31 15 1248 0 58 50 6 0 +-.00653072211441155 -.0036421195430437 .007
78301154208949 0 -1 0 0 0 -1 .0011303 16 58 1254 0 ?59 60 61 15 0 0 1 17 59 0 62
 59 59 0 63 58 0 0 +16 60 1181 0 ?64 57 58 65 0 0 1 16 61 1257 0 ?66 58 67 68 0
 0 1 17 66 0 69 66 66 0 70 61 0 0 +16 67 1255 0 ?71 61 14 72 0 0 1 31 68 1289 0
 61 72 65 0 +-.00653072211441155 -.00381 .00778301154208949 0 -1 0 0 0 -1 .00140
97 31 72 1290 0 67 73 68 0 +-.00653072211441155 -.0047625 .00778301154208949 0 -
1 0 0 0 -1 .0014097 31 65 1216 0 60 68 74 0 +.003474924656190345 -.0047625 -.009
5472770271871 0 -1 0 0 0 -1 .0014097 31 74 1215 0 57 65 75 0 +.00347492465619034
5 -.00381 -.0095472770271871 0 -1 0 0 0 -1 .0014097 16 57 1183 0 ?76 54 60 74 0
 0 1 31 75 1138 0 56 74 77 0 +.00653072211441885 -.001524 .00778301154208844 0 1
 0 0 0 1 .0014097 16 56 1103 0 ?78 53 54 75 0 0 1 31 77 1137 0 53 75 79 0 +.0065
3072211441885 -.0024765 .00778301154208844 0 1 0 0 0 1 .0014097 16 53 1105 0 ?80
 49 56 77 0 0 1 31 79 1066 0 52 77 81 0 +-.00653072211441155 -.001524 .007783011
54208949 0 1 0 0 0 1 .0014097 16 52 1033 0 ?82 48 49 79 0 0 1 31 81 1065 0 48 79
 83 0 +-.00653072211441155 -.0024765 .00778301154208949 0 1 0 0 0 1 .0014097 16
 48 1034 0 ?84 44 52 81 0 0 1 31 83 995 0 47 81 85 0 +.003474924656190345 -.0015
24 -.0095472770271871 0 1 0 0 0 1 .0014097 16 47 959 0 ?86 43 44 83 0 0 1 31 85
 994 0 43 83 87 0 +.003474924656190345 -.0024765 -.0095472770271871 0 1 0 0 0 1
 .0014097 16 43 962 0 ?88 39 47 85 0 0 1 31 87 760 0 42 85 89 0 +-.0034749246561
888 -.0047625 -.00954727702718483 0 -1 0 0 0 -1 .0014097 16 42 725 0 ?90 38 39 8
7 0 0 1 31 89 759 0 38 87 91 0 +-.0034749246561888 -.00381 -.00954727702718483 0
 -1 0 0 0 -1 .0014097 16 38 727 0 ?92 34 42 89 0 0 1 31 91 682 0 37 89 93 0 +-.0
034749246561888 -.001524 -.00954727702718483 0 1 0 0 0 1 .0014097 16 37 646 0 ?9
4 33 34 91 0 0 1 31 93 681 0 33 91 95 0 +-.0034749246561888 -.0024765 -.00954727
702718483 0 1 0 0 0 1 .0014097 16 33 649 0 ?96 29 37 93 0 0 1 31 95 553 0 32 93
 97 0 +-.00912877378129182 -.001524 .00527049999999992 0 1 0 0 0 1 59563e-8 16 3
2 532 0 ?98 99 29 95 0 0 1 31 97 552 0 99 95 100 0 +-.00912877378129182 -.004762
5 .00527049999999992 0 1 0 0 0 1 59563e-8 16 99 533 0 ?101 102 32 97 0 0 1 31 10
0 506 0 102 97 103 0 +.00912877378129174 -.001524 .0052705 0 1 0 0 0 1 59563e-8
 16 102 485 0 ?104 105 99 100 0 0 1 31 103 505 0 105 100 106 0 +.009128773781291
74 -.0047625 .0052705 0 1 0 0 0 1 59563e-8 16 105 486 0 ?107 108 102 103 0 0 1 3
1 106 452 0 108 103 109 0 +0 -.001524 -.010541 0 1 0 0 0 1 59563e-8 16 108 431 0
 ?110 111 105 106 0 0 1 31 109 451 0 111 106 112 0 +0 -.0047625 -.010541 0 1 0 0
 0 1 59563e-8 16 111 432 0 ?113 114 108 109 0 0 1 31 112 391 0 114 109 115 0 +.0
1319822715367476 141687960720951e-32 .00762000000000015 0 1 0 0 0 1 .00113029999
9999986 16 114 370 0 ?116 117 111 112 0 0 1 31 115 390 0 117 112 118 0 +.0131982
2715367476 -.0047625 .00762000000000015 0 1 0 0 0 1 .0011303 16 117 371 0 ?119 1
20 114 115 0 0 1 31 118 340 0 120 115 121 0 +.01319822715367492 141687960720951e
-32 -.00761999999999988 0 1 0 0 0 1 .001130299999999986 16 120 319 0 ?122 123 11
7 118 0 0 1 31 121 339 0 123 118 124 0 +.01319822715367492 -.0047625 -.007619999
99999988 0 1 0 0 0 1 .0011303 16 123 320 0 ?125 126 120 121 0 0 1 31 124 289 0 1
26 121 127 0 +0 141687960720951e-32 -.01524 0 1 0 0 0 1 .001130299999999986 16 1
26 268 0 ?128 129 123 124 0 0 1 31 127 288 0 129 124 130 0 +0 -.0047625 -.01524
 0 1 0 0 0 1 .0011303 16 129 269 0 ?131 132 126 127 0 0 1 31 130 243 0 132 127 1
33 0 +-.0131982271536748 141687960720951e-32 -.00762 0 1 0 0 0 1 .00113029999999
9986 16 132 222 0 ?134 135 129 130 0 0 1 31 133 242 0 135 130 136 0 +-.013198227
1536748 -.0047625 -.00762 0 1 0 0 0 1 .0011303 16 135 223 0 ?137 138 132 133 0 0
 1 31 136 193 0 138 133 139 0 +-.01319822715367486 141687960720951e-32 .00762 0
 1 0 0 0 1 .001130299999999986 16 138 172 0 ?140 141 135 136 0 0 1 31 139 192 0
 141 136 142 0 +-.01319822715367486 -.0047625 .00762 0 1 0 0 0 1 .0011303 16 141
 173 0 ?143 144 138 139 0 0 1 31 142 137 0 144 139 145 0 +0 141687960720951e-32
 .01524 0 1 0 0 0 1 .001130299999999986 16 144 116 0 ?146 147 141 142 0 0 1 31 1
45 136 0 147 142 27 0 +0 -.0047625 .01524 0 1 0 0 0 1 .0011303 16 147 117 0 ?148
 26 144 145 0 0 1 31 27 82 0 23 145 25 0 +0 -.001524 0 0 1 0 0 0 1 .011684 16 23
 59 0 ?149 18 26 27 0 0 1 17 149 0 150 149 149 0 151 23 0 0 +16 26 62 0 ?152 23
 147 25 0 0 1 17 152 0 153 152 152 0 154 26 0 0 +15 255 153 69 0 152 155 0 17 15
4 0 156 154 154 0 152 26 0 0 -15 156 54 0 154 157 158 14 255 157 16 159 ?155 12
 160 4 13 +0 0 155 12 16 15 158 17 0 22 157 0 17 22 0 158 22 22 0 161 18 0 0 +17
 161 0 162 161 161 0 22 18 0 0 -15 162 26 0 161 12 0 14 12 25 163 ?157 10 20 4 5
 +0 0 157 10 16 81 255 1 163 1542 164 12 165 0 159 166 167 14 10 1241 166 ?12 0
 168 4 169 -0 0 12 0 16 15 20 24 0 17 12 162 13 16 8 0 0 0 0 0 0 7 10 81 1 166 1
543 164 10 170 0 163 171 172 15 168 1321 0 173 10 174 50 255 169 2 0 10 175 13 0
 +0 -.0047625 0 0 1 0 0 0 1 51 175 78 0 155 176 169 0 +0 -.001524 0 0 1 0 .01168
4 0 0 1 50 13 22 0 157 169 5 0 +0 0 0 0 1 0 0 0 1 14 155 65 171 ?177 157 178 4 1
75 -0 0 177 157 16 50 176 80 0 177 179 175 0 +0 -.001524 0 0 1 0 0 0 1 14 177 70
 180 ?181 155 182 4 176 +0 0 181 155 16 51 179 135 0 181 183 176 0 +0 0 .01524 0
 1 0 .0011303 0 0 1 14 181 126 184 ?185 177 186 4 179 -0 0 185 177 16 51 183 191
 0 185 187 179 0 +-.01319822715367486 0 .00762 0 1 0 .0011303 0 0 1 14 185 182 1
88 ?189 181 190 4 183 -0 0 189 181 16 51 187 241 0 189 191 183 0 +-.013198227153
6748 0 -.00762 0 1 0 .0011303 0 0 1 14 189 232 192 ?193 185 194 4 187 -0 0 193 1
85 16 51 191 287 0 193 195 187 0 +0 0 -.01524 0 1 0 .0011303 0 0 1 14 193 278 19
6 ?197 189 198 4 191 -0 0 197 189 16 51 195 338 0 197 199 191 0 +.01319822715367
492 0 -.00761999999999988 0 1 0 .0011303 0 0 1 14 197 329 200 ?201 193 202 4 195
 -0 0 201 193 16 51 199 389 0 201 203 195 0 +.01319822715367476 0 .0076200000000
0015 0 1 0 .0011303 0 0 1 14 201 380 204 ?205 197 206 4 199 -0 0 205 197 16 51 2
03 450 0 205 207 199 0 +0 -.001524 -.010541 0 1 0 59563e-8 0 0 1 14 205 441 208
 ?209 201 210 4 203 -0 0 209 201 16 51 207 504 0 209 211 203 0 +.009128773781291
74 -.001524 .0052705 0 1 0 59563e-8 0 0 1 14 209 495 212 ?213 205 214 4 207 -0 0
 213 205 16 51 211 551 0 213 215 207 0 +-.00912877378129182 -.001524 .0052704999
9999992 0 1 0 59563e-8 0 0 1 14 213 542 216 ?217 209 218 4 211 -0 0 217 209 16 5
1 215 609 0 217 219 211 0 +-.0034749246561888 -.001524 -.00954727702718483 0 1 0
 .0011303 0 0 1 14 217 600 220 ?221 213 222 4 215 -0 0 221 213 16 52 255 219 678
 0 221 223 215 0 +-.0034749246561888 -.0024765 -.00954727702718483 0 1 0 .001409
7 .857167300702112 .515038074910055 0 0 1 14 221 656 224 ?225 217 226 4 219 -0 0
 225 217 16 51 223 679 0 225 227 219 0 +-.0034749246561888 -.001524 -.0095472770
2718483 0 1 0 .0014097 0 0 1 14 225 670 228 ?229 221 230 4 223 -0 0 229 221 16 5
2 227 756 0 229 231 223 0 +-.0034749246561888 -.00381 -.00954727702718483 0 -1 0
 .0014097 .857167300702112 .515038074910054 0 0 -1 14 229 729 232 ?233 225 234 4
 227 -0 0 233 225 16 51 231 757 0 233 235 227 0 +-.0034749246561888 -.0047625 -.
00954727702718483 0 -1 0 .0014097 0 0 -1 14 233 748 236 ?237 229 238 4 231 -0 0
 237 229 16 51 235 817 0 237 239 231 0 +.003474924656190345 -.001524 -.009547277
0271871 0 1 0 .0011303 0 0 1 14 237 808 240 ?241 233 242 4 235 -0 0 241 233 16 5
1 239 870 0 241 243 235 0 +-.00653072211441155 -.001524 .00778301154208949 0 1 0
 .0011303 0 0 1 14 241 861 244 ?245 237 62 4 239 -0 0 245 237 16 51 243 922 0 24
5 246 239 0 +.00653072211441885 -.001524 .00778301154208844 0 1 0 .0011303 0 0 1
 14 245 913 247 ?248 241 249 4 243 -0 0 248 241 16 52 246 991 0 248 250 243 0 +.
003474924656190345 -.0024765 -.0095472770271871 0 1 0 .0014097 .857167300702112
 .515038074910055 0 0 1 14 248 969 251 ?252 245 253 4 246 -0 0 252 245 16 51 250
 992 0 252 254 246 0 +.003474924656190345 -.001524 -.0095472770271871 0 1 0 .001
4097 0 0 1 14 252 983 255 ?256 248 257 4 250 -0 0 256 248 16 52 254 1063 0 256 2
58 250 0 +-.00653072211441155 -.0024765 .00778301154208949 0 1 0 .0014097 .85716
7300702112 .515038074910055 0 0 1 14 256 1036 259 ?260 252 261 4 254 -0 0 260 25
2 16 51 258 1064 0 260 262 254 0 +-.00653072211441155 -.001524 .0077830115420894
9 0 1 0 .0014097 0 0 1 14 260 1055 263 ?264 256 265 4 258 -0 0 264 256 16 52 262
 1134 0 264 266 258 0 +.00653072211441885 -.0024765 .00778301154208844 0 1 0 .00
14097 .857167300702112 .515038074910055 0 0 1 14 264 1107 267 ?268 260 269 4 262
 -0 0 268 260 16 51 266 1135 0 268 270 262 0 +.00653072211441885 -.001524 .00778
301154208844 0 1 0 .0014097 0 0 1 14 268 1126 271 ?272 264 273 4 266 -0 0 272 26
4 16 52 270 1212 0 272 274 266 0 +.003474924656190345 -.00381 -.0095472770271871
 0 -1 0 .0014097 .857167300702112 .515038074910054 0 0 -1 14 272 1185 275 ?276 2
68 277 4 270 -0 0 276 268 16 51 274 1213 0 276 278 270 0 +.003474924656190345 -.
0047625 -.0095472770271871 0 -1 0 .0014097 0 0 -1 14 276 1204 279 ?280 272 281 4
 274 -0 0 280 272 16 52 278 1286 0 280 282 274 0 +-.00653072211441155 -.00381 .0
0778301154208949 0 -1 0 .0014097 .857167300702112 .515038074910055 0 0 -1 14 280
 1259 283 ?284 276 69 4 278 -0 0 284 276 16 51 282 1287 0 284 285 278 0 +-.00653
072211441155 -.0047625 .00778301154208949 0 -1 0 .0014097 0 0 -1 14 284 1278 286
 ?287 280 288 4 282 -0 0 287 280 16 52 285 1361 0 287 289 282 0 +.00653072211441
885 -.00381 .00778301154208844 0 -1 0 .0014097 .857167300702112 .515038074910055
 0 0 -1 14 287 1339 290 ?291 284 292 4 285 -0 0 291 284 16 51 289 1362 0 291 0 2
85 0 +.00653072211441885 -.0047625 .00778301154208844 0 -1 0 .0014097 0 0 -1 14
 291 1353 293 ?0 287 294 4 289 -0 0 0 287 16 81 1 293 1574 164 291 295 0 290 0 2
96 15 294 1356 0 297 291 298 17 297 0 294 297 297 0 299 300 0 0 -15 298 1357 0 3
01 291 0 17 301 0 298 301 301 0 173 302 0 0 +17 173 0 168 173 173 0 301 302 0 0
 -16 302 1329 0 ?301 300 0 303 0 0 1 16 300 1332 0 ?299 14 302 73 0 0 1 31 303 1
365 0 302 0 73 0 +.00653072211441885 -.0047625 .00778301154208844 0 -1 0 0 0 -1
 .0014097 31 73 1364 0 300 303 72 0 +.00653072211441885 -.00381 .007783011542088
44 0 -1 0 0 0 -1 .0014097 17 299 0 292 299 299 0 297 300 0 0 +16 14 1331 0 ?304
 67 300 6 0 0 1 17 304 0 249 304 304 0 305 14 0 0 +15 249 1313 0 304 245 306 17
 305 0 307 305 305 0 304 14 0 0 -15 307 1343 0 305 287 0 15 306 1087 0 51 245 0
 17 51 0 306 51 51 0 308 49 0 0 +17 308 0 309 308 308 0 51 49 0 0 -15 309 1111 0
 308 264 0 15 292 1342 0 299 287 307 80 255 1 164 310 311 9000 1 1 1 1 1 1 1 1 0
 FFFFTFTFFFFFFF1 81 1 295 1470 312 291 0 293 313 0 314 81 1 290 1573 164 287 313
 0 286 293 315 82 255 1 296 952762623 81 1 313 1469 312 287 0 290 316 295 317 81
 1 286 1572 164 284 316 0 283 290 318 82 1 315 958595327 81 1 316 1468 312 284 0
 286 319 313 320 81 1 283 1571 164 280 319 0 279 286 321 82 1 318 932446463 81 1
 319 1467 312 280 0 283 322 316 323 81 1 279 1570 164 276 322 0 275 283 324 82 1
 321 939458815 81 1 322 1466 312 276 0 279 325 319 326 81 1 275 1569 164 272 325
 0 271 279 327 82 1 324 912130303 81 1 325 1465 312 272 0 275 328 322 329 81 1 2
71 1568 164 268 328 0 267 275 330 82 1 327 919077119 81 1 328 1464 312 268 0 271
 331 325 332 81 1 267 1567 164 264 331 0 263 271 333 82 1 330 891551999 81 1 331
 1463 312 264 0 267 334 328 335 81 1 263 1566 164 260 334 0 259 267 336 82 1 333
 898498815 81 1 334 1462 312 260 0 263 337 331 338 81 1 259 1565 164 256 337 0 2
55 263 339 82 1 336 871432447 81 1 337 1461 312 256 0 259 340 334 341 81 1 255 1
564 164 252 340 0 251 259 342 82 1 339 878313727 81 1 340 1460 312 252 0 255 343
 337 344 81 1 251 1563 164 248 343 0 247 255 345 82 1 342 851181823 81 1 343 145
9 312 248 0 251 346 340 347 81 1 247 1562 164 245 346 0 244 251 348 82 1 345 856
883455 81 1 346 1458 312 245 0 247 349 343 350 81 1 244 1561 164 241 349 0 240 2
47 351 82 1 348 832176383 81 1 349 1457 312 241 0 244 352 346 353 81 1 240 1560
 164 237 352 0 236 244 354 82 1 351 813302015 81 1 352 1456 312 237 0 240 355 34
9 356 81 1 236 1559 164 233 355 0 232 240 357 82 1 354 794427647 81 1 355 1455 3
12 233 0 236 358 352 359 81 1 232 1558 164 229 358 0 228 236 360 82 1 357 773652
734 81 1 358 1454 312 229 0 232 361 355 362 81 1 228 1557 164 225 361 0 224 232
 363 82 1 360 780796158 81 1 361 1453 312 225 0 228 364 358 365 81 1 224 1556 16
4 221 364 0 220 228 366 82 1 363 752419069 81 1 364 1452 312 221 0 224 367 361 3
68 81 1 220 1555 164 217 367 0 216 224 369 82 1 366 758251773 81 1 367 1451 312
 217 0 220 370 364 371 81 1 216 1554 164 213 370 0 212 220 372 82 1 369 73256166
2 81 1 370 1450 312 213 0 216 373 367 374 81 1 212 1553 164 209 373 0 208 216 37
5 82 1 372 712835321 81 1 373 1449 312 209 0 212 376 370 377 81 1 208 1552 164 2
05 376 0 204 212 378 82 1 375 694157561 81 1 376 1448 312 205 0 208 379 373 380
 81 1 204 1551 164 201 379 0 200 208 381 82 1 378 674300152 81 1 379 1447 312 20
1 0 204 382 376 383 81 1 200 1550 164 197 382 0 196 204 384 82 1 381 654049526 8
1 1 382 1446 312 197 0 200 385 379 386 81 1 196 1549 164 193 385 0 192 200 387 8
2 1 384 635306230 81 1 385 1445 312 193 0 196 388 382 389 81 1 192 1548 164 189
 388 0 188 196 390 82 1 387 616759542 81 1 388 1444 312 189 0 192 391 385 392 81
 1 188 1547 164 185 391 0 184 192 393 82 1 390 598212854 81 1 391 1443 312 185 0
 188 394 388 395 81 1 184 1546 164 181 394 0 180 188 396 82 1 393 579404022 81 1
 394 1442 312 181 0 184 397 391 398 81 1 180 1545 164 177 397 0 171 184 399 82 1
 396 559874293 81 1 397 1441 312 177 0 180 400 394 401 81 1 171 1544 164 155 400
 0 166 180 402 82 1 399 541589759 81 1 400 1440 312 155 0 171 403 397 404 82 1 4
02 543555828 80 1 312 0 405 8001 0 0 0 0 3 5 0 0 0 FFFFTFTFFFFFFF2 81 1 403 1439
 312 157 0 159 165 400 406 83 255 3 404 .537254901960784 .3490196078431375 .3372
549019607845 81 1 159 1541 164 157 403 0 0 163 407 81 1 165 1438 312 12 0 163 17
0 403 408 83 3 406 .537254901960784 .3490196078431375 .3372549019607845 81 1 170
 1437 312 10 0 166 0 165 409 83 3 408 .537254901960784 .3490196078431375 .337254
9019607845 83 3 409 .537254901960784 .3490196078431375 .3372549019607845 82 1 40
7 419627254 79 255 15 405 SDL/TYSA_COLOUR83 3 401 .537254901960784 .349019607843
1375 .3372549019607845 83 3 398 .792156862745098 .819607843137255 .9333333333333
33 83 3 395 .792156862745098 .819607843137255 .933333333333333 83 3 392 .7921568
62745098 .819607843137255 .933333333333333 83 3 389 .792156862745098 .8196078431
37255 .933333333333333 83 3 386 .792156862745098 .819607843137255 .9333333333333
33 83 3 383 .792156862745098 .819607843137255 .933333333333333 83 3 380 .7921568
62745098 .819607843137255 .933333333333333 83 3 377 .792156862745098 .8196078431
37255 .933333333333333 83 3 374 .792156862745098 .819607843137255 .9333333333333
33 83 3 371 .537254901960784 .3490196078431375 .3372549019607845 83 3 368 .53725
4901960784 .3490196078431375 .3372549019607845 83 3 365 .537254901960784 .349019
6078431375 .3372549019607845 83 3 362 .537254901960784 .3490196078431375 .337254
9019607845 83 3 359 .537254901960784 .3490196078431375 .3372549019607845 83 3 35
6 .537254901960784 .3490196078431375 .3372549019607845 83 3 353 .537254901960784
 .3490196078431375 .3372549019607845 83 3 350 .537254901960784 .3490196078431375
 .3372549019607845 83 3 347 .537254901960784 .3490196078431375 .3372549019607845
 83 3 344 .537254901960784 .3490196078431375 .3372549019607845 83 3 341 .5372549
01960784 .3490196078431375 .3372549019607845 83 3 338 .537254901960784 .34901960
78431375 .3372549019607845 83 3 335 .537254901960784 .3490196078431375 .33725490
19607845 83 3 332 .537254901960784 .3490196078431375 .3372549019607845 83 3 329
 .537254901960784 .3490196078431375 .3372549019607845 83 3 326 .537254901960784
 .3490196078431375 .3372549019607845 83 3 323 .537254901960784 .3490196078431375
 .3372549019607845 83 3 320 .537254901960784 .3490196078431375 .3372549019607845
 83 3 317 .537254901960784 .3490196078431375 .3372549019607845 83 3 314 .5372549
01960784 .3490196078431375 .3372549019607845 79 14 311 SWEntUnchanged15 288 1281
 0 70 284 410 17 70 0 288 70 70 0 66 61 0 0 -15 410 1282 0 71 284 0 17 71 0 410
 71 71 0 411 67 0 0 +17 411 0 412 411 411 0 71 67 0 0 -15 412 1240 0 411 10 0 15
 69 1262 0 66 280 413 15 413 1263 0 63 280 0 17 63 0 413 63 63 0 59 58 0 0 -15 2
81 1207 0 414 276 415 17 414 0 281 414 414 0 76 57 0 0 -15 415 1208 0 64 276 0 1
7 64 0 415 64 64 0 416 60 0 0 +17 416 0 174 416 416 0 64 60 0 0 -15 174 1166 0 4
16 10 417 15 417 708 0 418 10 419 17 418 0 417 418 418 0 90 42 0 0 -15 419 518 0
 101 10 420 17 101 0 419 101 101 0 421 99 0 0 +15 420 477 0 107 10 422 17 107 0
 420 107 107 0 423 105 0 0 +15 422 424 0 113 10 424 17 113 0 422 113 113 0 425 1
11 0 0 +15 424 362 0 119 10 426 17 119 0 424 119 119 0 427 117 0 0 +15 426 311 0
 125 10 428 17 125 0 426 125 125 0 429 123 0 0 +15 428 260 0 131 10 430 17 131 0
 428 131 131 0 431 129 0 0 +15 430 214 0 137 10 432 17 137 0 430 137 137 0 433 1
35 0 0 +15 432 156 0 143 10 434 17 143 0 432 143 143 0 435 141 0 0 +15 434 108 0
 148 10 436 17 148 0 434 148 148 0 437 147 0 0 +15 436 3 0 21 10 412 17 21 0 436
 21 21 0 17 8 0 0 -17 437 0 186 437 437 0 148 147 0 0 -15 186 129 0 437 181 438
 15 438 130 0 146 181 0 17 146 0 438 146 146 0 439 144 0 0 +17 439 0 440 439 439
 0 146 144 0 0 -15 440 101 0 439 157 156 17 435 0 190 435 435 0 143 141 0 0 -15
 190 185 0 435 185 441 15 441 186 0 140 185 0 17 140 0 441 140 140 0 442 138 0 0
 +17 442 0 443 442 442 0 140 138 0 0 -15 443 165 0 442 157 440 17 433 0 194 433
 433 0 137 135 0 0 -15 194 235 0 433 189 444 15 444 236 0 134 189 0 17 134 0 444
 134 134 0 445 132 0 0 +17 445 0 446 445 445 0 134 132 0 0 -15 446 208 0 445 157
 443 17 431 0 198 431 431 0 131 129 0 0 -15 198 281 0 431 193 447 15 447 282 0 1
28 193 0 17 128 0 447 128 128 0 448 126 0 0 +17 448 0 449 448 448 0 128 126 0 0
 -15 449 254 0 448 157 446 17 429 0 202 429 429 0 125 123 0 0 -15 202 332 0 429
 197 450 15 450 333 0 122 197 0 17 122 0 450 122 122 0 451 120 0 0 +17 451 0 452
 451 451 0 122 120 0 0 -15 452 304 0 451 157 449 17 427 0 206 427 427 0 119 117
 0 0 -15 206 383 0 427 201 453 15 453 384 0 116 201 0 17 116 0 453 116 116 0 454
 114 0 0 +17 454 0 160 454 454 0 116 114 0 0 -15 160 355 0 454 157 452 17 425 0
 210 425 425 0 113 111 0 0 -15 210 444 0 425 205 455 15 455 445 0 110 205 0 17 1
10 0 455 110 110 0 456 108 0 0 +17 456 0 457 456 456 0 110 108 0 0 -15 457 417 0
 456 177 150 15 150 72 0 149 177 0 17 423 0 214 423 423 0 107 105 0 0 -15 214 49
8 0 423 209 458 15 458 499 0 104 209 0 17 104 0 458 104 104 0 459 102 0 0 +17 45
9 0 460 459 459 0 104 102 0 0 -15 460 470 0 459 177 457 17 421 0 218 421 421 0 1
01 99 0 0 -15 218 545 0 421 213 461 15 461 546 0 98 213 0 17 98 0 461 98 98 0 46
2 32 0 0 +17 462 0 463 462 462 0 98 32 0 0 -15 463 526 0 462 177 460 17 90 0 464
 90 90 0 418 42 0 0 +15 464 752 0 90 233 0 17 76 0 277 76 76 0 414 57 0 0 +15 27
7 1188 0 76 272 465 15 465 1189 0 466 272 0 17 466 0 465 466 466 0 55 54 0 0 -17
 55 0 242 55 55 0 466 54 0 0 +15 242 1172 0 55 237 467 15 467 943 0 41 237 0 17
 41 0 467 41 41 0 468 39 0 0 +17 468 0 469 468 468 0 41 39 0 0 -15 469 973 0 468
 248 0 15 273 1129 0 470 268 471 17 470 0 273 470 470 0 80 53 0 0 -15 471 1130 0
 78 268 0 17 78 0 471 78 78 0 472 56 0 0 +17 472 0 182 472 472 0 78 56 0 0 -15 1
82 1096 0 472 177 473 15 473 1017 0 474 177 475 17 474 0 473 474 474 0 82 52 0 0
 -15 475 952 0 476 177 477 17 476 0 475 476 476 0 86 47 0 0 -15 477 640 0 478 17
7 463 17 478 0 477 478 478 0 94 37 0 0 -17 94 0 479 94 94 0 478 37 0 0 +15 479 6
74 0 94 225 0 17 86 0 480 86 86 0 476 47 0 0 +15 480 987 0 86 252 0 17 82 0 481
 82 82 0 474 52 0 0 +15 481 1059 0 82 260 0 17 80 0 269 80 80 0 470 53 0 0 +15 2
69 1110 0 80 264 309 15 265 1058 0 482 260 481 17 482 0 265 482 482 0 84 48 0 0
 -17 84 0 261 84 84 0 482 48 0 0 +15 261 1039 0 84 256 483 15 483 1040 0 484 256
 0 17 484 0 483 484 484 0 46 44 0 0 -17 46 0 485 46 46 0 484 44 0 0 +15 485 1023
 0 46 241 0 15 257 986 0 486 252 480 17 486 0 257 486 486 0 88 43 0 0 -17 88 0 2
53 88 88 0 486 43 0 0 +15 253 972 0 88 248 469 15 62 1246 0 59 241 485 15 238 75
1 0 487 233 464 17 487 0 238 487 487 0 92 38 0 0 -17 92 0 234 92 92 0 487 38 0 0
 +15 234 732 0 92 229 488 15 488 733 0 489 229 0 17 489 0 488 489 489 0 36 34 0
 0 -17 36 0 222 36 36 0 489 34 0 0 +15 222 716 0 36 217 490 15 490 631 0 31 217
 0 17 31 0 490 31 31 0 491 29 0 0 +17 491 0 492 491 491 0 31 29 0 0 -15 492 660
 0 491 221 0 15 230 673 0 493 225 479 17 493 0 230 493 493 0 96 33 0 0 -17 96 0
 226 96 96 0 493 33 0 0 +15 226 659 0 96 221 492 15 178 68 0 151 155 153 17 151
 0 178 151 151 0 149 23 0 0 -82 1 172 937623807 82 1 167 1602289884 19 11 30 0 1
 0 7 4 S0 74 4 CI16 index_map_offset0 0 1 dCCZ20 9 2 0 0 293 295 0 0 0 0 0 0 0 0
 0 0 0 0 0 0 0 0 0 0 1 0 
