**ABCDEFGHIJKLMNOPQRSTUVWXYZabcdefghijklmnopqrstuvwxyz**************************
**PARASOLID !"#$%&'()*+,-./:;<=>?@[\]^_`{|}~0123456789**************************
**PART1;
MC=AMD64;
MC_MODEL=Intel64 Family 6 Model 79 Stepping 1, GenuineIntel;
MC_ID=unknown;
OS=Windows_NT;
OS_RELEASE=unknown;
FRU=Parasolid Version 29.0, build 166,  7-11-2016;
APPL=SOLIDWORKS 2017-2016280;
SITE=;
USER=unknown;
FORMAT=text;
GUISE=transmit;
KEY=Sample_Mount;
FILE=Sample_Mount.x_t;
DATE=Tue Sep 17 16:41:19 2019;
**PART2;
SCH=SCH_2900166_28101;
USFLD_SIZE=0;
**PART3;
**END_OF_HEADER*****************************************************************
T51 : TRANSMIT FILE created by modeller version 290016623 SCH_2900166_28101_1300
6203 0 12 33 CCCCCCI4 mesh1006 0 I8 polyline1008 0 CCCCCCCDI5 owner1040 0 CCCCCC
I13 boundary_mesh1006 0 I17 boundary_polyline1008 0 CCCA16 index_map_offset0 0 1
 dA9 index_map82 0 A17 node_id_index_map82 0 A20 schema_embedding_map82 0 A5 chi
ld12 0 A14 lowest_node_id0 0 1 dZ1 256 0 2 0 0 0 0 0 0 1e3 1e-8 0 3 0 1 0 1 1 4
 5 6 0 0 0 7 8 0 0 0 0 0 0 0 70 11 CI9 list_type0 0 1 uI10 notransmit0 0 1 lCCCD
CCDI12 finger_index0 0 1 dI12 finger_block1012 0 CZ2 0 4 T1 0 0 2 20 1 9 9 13 25
5 4 29 0 1 0 10 0 0 11 0 51 255 5 28 0 10 12 0 0 +0 -.001524 0 0 1 0 .011557 0 0
 1 31 255 6 23 0 13 14 0 0 +0 0 0 0 1 0 0 0 1 .011557 19 8 CCCCCCCA5 owner12 0 Z
7 7 0 1 11 0 15 V0 16 255 8 4 0 ?16 0 13 14 0 0 1 17 255 16 0 17 16 16 0 18 8 0
 0 +16 13 18 0 ?19 8 20 6 0 0 1 31 14 5 0 8 21 6 0 +0 -.001524 0 0 1 0 0 0 1 .01
1557 31 21 96 0 20 22 14 0 +0 -.001524 -.010541 0 1 0 0 0 1 .000888999999999988
 16 20 75 0 ?23 13 24 21 0 0 1 31 22 97 0 24 25 21 0 +0 1446430334472936e-33 -.0
10541 0 1 0 0 0 1 .000888999999999989 16 24 74 0 ?26 20 27 22 0 0 1 31 25 151 0
 27 28 22 0 +.00912877378129174 -.001524 .0052705 0 1 0 0 0 1 .00088899999999998
9 16 27 130 0 ?29 24 30 25 0 0 1 31 28 152 0 30 31 25 0 +.00912877378129174 1446
430334472936e-33 .0052705 0 1 0 0 0 1 .000888999999999989 16 30 129 0 ?32 27 33
 28 0 0 1 31 31 201 0 33 34 28 0 +-.00912877378129182 -.001524 .0052704999999999
2 0 1 0 0 0 1 .000888999999999989 16 33 180 0 ?35 30 36 31 0 0 1 31 34 202 0 36
 0 31 0 +-.00912877378129182 1446430334472936e-33 .00527049999999992 0 1 0 0 0 1
 .000888999999999989 16 36 179 0 ?37 33 0 34 0 0 1 17 37 0 38 37 37 0 39 36 0 0
 +15 255 38 195 0 37 40 0 17 39 0 41 39 39 0 37 36 0 0 -15 41 164 0 39 42 43 14
 255 42 16 44 ?45 46 41 4 12 +0 0 45 46 15 15 43 114 0 47 42 48 17 47 0 43 47 47
 0 32 30 0 0 -15 48 67 0 49 42 50 17 49 0 48 49 49 0 26 24 0 0 -15 50 17 0 19 42
 0 17 19 0 50 19 19 0 51 13 0 0 +17 51 0 52 51 51 0 19 13 0 0 -15 52 26 0 51 10
 0 14 10 25 53 ?46 0 17 4 5 +0 0 46 0 15 81 255 1 53 252 54 10 55 0 44 56 57 14
 46 1 56 ?42 10 58 4 59 -0 0 42 10 15 15 17 24 0 16 10 52 13 15 8 0 0 0 0 0 0 7
 10 81 1 56 253 54 46 60 0 53 61 62 15 58 171 0 35 46 63 50 255 59 2 0 46 64 12
 0 +0 -.001524 0 0 1 0 0 0 1 51 64 95 0 45 65 59 0 +0 0 -.010541 0 1 0 .00088899
9999999989 0 0 1 50 12 22 0 42 59 5 0 +0 0 0 0 1 0 0 0 1 14 45 86 61 ?66 42 67 4
 64 -0 0 66 42 15 51 65 150 0 66 68 64 0 +.00912877378129174 0 .0052705 0 1 0 .0
00888999999999989 0 0 1 14 66 141 69 ?40 45 70 4 65 -0 0 40 45 15 51 68 200 0 40
 0 65 0 +-.00912877378129182 0 .00527049999999992 0 1 0 .000888999999999989 0 0
 1 14 40 191 71 ?0 66 72 4 68 -0 0 0 66 15 81 1 71 256 54 40 73 0 69 0 74 15 72
 194 0 75 40 38 17 75 0 72 75 75 0 35 33 0 0 -17 35 0 58 35 35 0 75 33 0 0 +80 2
55 1 54 76 77 9000 1 1 1 1 1 1 1 1 0 FFFFTFTFFFFFFF1 81 1 73 236 78 40 0 71 79 0
 80 81 1 69 255 54 66 79 0 61 71 81 82 255 1 74 -1870397310 81 1 79 235 78 66 0
 69 82 73 83 81 1 61 254 54 45 82 0 56 69 84 82 1 81 -1888943998 81 1 82 234 78
 45 0 61 85 79 86 82 1 84 -2026438528 80 1 78 0 87 8001 0 0 0 0 3 5 0 0 0 FFFFTF
TFFFFFFF2 81 1 85 233 78 42 0 44 60 82 88 83 255 3 86 .988235294117647 .98431372
5490196 1 81 1 44 251 54 42 85 0 0 53 89 81 1 60 232 78 46 0 56 55 85 90 83 3 88
 .988235294117647 .984313725490196 1 81 1 55 231 78 10 0 53 0 60 91 83 3 90 .988
235294117647 .984313725490196 1 83 3 91 .988235294117647 .984313725490196 1 82 1
 89 -2041970558 79 255 15 87 SDL/TYSA_COLOUR83 3 83 .988235294117647 .9843137254
90196 1 83 3 80 .988235294117647 .984313725490196 1 79 14 77 SWEntUnchanged15 70
 144 0 92 66 93 17 92 0 70 92 92 0 29 27 0 0 -15 93 145 0 32 66 0 17 32 0 93 32
 32 0 47 30 0 0 +17 29 0 63 29 29 0 92 27 0 0 +15 63 121 0 29 46 94 15 94 58 0 2
3 46 95 17 23 0 94 23 23 0 96 20 0 0 +15 95 3 0 18 46 0 17 18 0 95 18 18 0 16 8
 0 0 -17 96 0 67 96 96 0 23 20 0 0 -15 67 89 0 96 45 97 15 97 90 0 26 45 0 17 26
 0 97 26 26 0 49 24 0 0 +82 1 62 -2043674494 82 1 57 -2041708417 19 11 30 0 1 0
 7 4 S0 74 4 CI16 index_map_offset0 0 1 dCCZ20 9 2 0 0 71 73 0 0 0 0 0 0 0 0 0 0
 0 0 0 0 0 0 0 0 1 0 
