**ABCDEFGHIJKLMNOPQRSTUVWXYZabcdefghijklmnopqrstuvwxyz**************************
**PARASOLID !"#$%&'()*+,-./:;<=>?@[\]^_`{|}~0123456789**************************
**PART1;
MC=AMD64;
MC_MODEL=Intel64 Family 6 Model 79 Stepping 1, GenuineIntel;
MC_ID=unknown;
OS=Windows_NT;
OS_RELEASE=unknown;
FRU=Parasolid Version 29.0, build 166,  7-11-2016;
APPL=SOLIDWORKS 2017-2016280;
SITE=;
USER=unknown;
FORMAT=text;
GUISE=transmit;
KEY=Top;
FILE=Top.x_t;
DATE=Tue Sep 17 16:40:17 2019;
**PART2;
SCH=SCH_2900166_28101;
USFLD_SIZE=0;
**PART3;
**END_OF_HEADER*****************************************************************
T51 : TRANSMIT FILE created by modeller version 290016623 SCH_2900166_28101_1300
6203 0 12 33 CCCCCCI4 mesh1006 0 I8 polyline1008 0 CCCCCCCDI5 owner1040 0 CCCCCC
I13 boundary_mesh1006 0 I17 boundary_polyline1008 0 CCCA16 index_map_offset0 0 1
 dA9 index_map82 0 A17 node_id_index_map82 0 A20 schema_embedding_map82 0 A5 chi
ld12 0 A14 lowest_node_id0 0 1 dZ1 463 0 2 0 0 0 0 0 0 1e3 1e-8 0 3 0 1 0 1 1 4
 5 6 0 0 0 7 8 0 0 0 0 0 0 0 70 11 CI9 list_type0 0 1 uI10 notransmit0 0 1 lCCCD
CCDI12 finger_index0 0 1 dI12 finger_block1012 0 CZ2 0 4 T1 0 0 2 20 1 9 9 13 25
5 4 29 0 1 0 10 0 0 11 0 51 255 5 28 0 10 12 0 0 -0 .00635 0 0 -1 0 .01905 0 0 -
1 31 255 6 23 0 13 14 0 0 +0 0 0 0 1 0 0 0 1 .01905 19 8 CCCCCCCA5 owner12 0 Z7
 7 0 1 11 0 15 V0 16 255 8 4 0 ?16 0 13 14 0 0 1 17 255 16 0 17 16 16 0 18 8 0 0
 +16 13 18 0 ?19 8 20 6 0 0 1 31 14 5 0 8 21 6 0 +0 .00635 0 0 1 0 0 0 1 .01905
 31 21 81 0 22 23 14 0 +0 0 0 0 1 0 0 0 1 .0116205 16 22 59 0 ?24 20 25 21 0 0 1
 31 23 82 0 20 26 21 0 +0 .00381 0 0 1 0 0 0 1 .0116205 16 20 62 0 ?27 13 22 23
 0 0 1 31 26 135 0 25 28 23 0 +0 520417042793042e-32 -.01524 0 1 0 0 0 1 .001473
199999999986 16 25 116 0 ?29 22 30 26 0 0 1 31 28 136 0 30 31 26 0 +0 .00635 -.0
1524 0 1 0 0 0 1 .001473199999999986 16 30 115 0 ?32 25 33 28 0 0 1 31 31 190 0
 33 34 28 0 +.01319822715367486 520417042793042e-32 -.00762 0 1 0 0 0 1 .0014731
99999999986 16 33 171 0 ?35 30 36 31 0 0 1 31 34 191 0 36 37 31 0 +.013198227153
67486 .00635 -.00762 0 1 0 0 0 1 .001473199999999986 16 36 170 0 ?38 33 39 34 0
 0 1 31 37 241 0 39 40 34 0 +.0131982271536748 520417042793042e-32 .00762 0 1 0
 0 0 1 .001473199999999986 16 39 222 0 ?41 36 42 37 0 0 1 31 40 242 0 42 43 37 0
 +.0131982271536748 .00635 .00762 0 1 0 0 0 1 .001473199999999986 16 42 221 0 ?4
4 39 45 40 0 0 1 31 43 288 0 45 46 40 0 +0 520417042793042e-32 .01524 0 1 0 0 0
 1 .001473199999999986 16 45 269 0 ?47 42 48 43 0 0 1 31 46 289 0 48 49 43 0 +0
 .00635 .01524 0 1 0 0 0 1 .001473199999999986 16 48 268 0 ?50 45 51 46 0 0 1 31
 49 338 0 51 52 46 0 +-.01319822715367492 520417042793042e-32 .00761999999999988
 0 1 0 0 0 1 .001473199999999986 16 51 319 0 ?53 48 54 49 0 0 1 31 52 339 0 54 5
5 49 0 +-.01319822715367492 .00635 .00761999999999988 0 1 0 0 0 1 .0014731999999
99986 16 54 318 0 ?56 51 57 52 0 0 1 31 55 389 0 57 58 52 0 +-.01319822715367476
 520417042793042e-32 -.00762000000000015 0 1 0 0 0 1 .001473199999999986 16 57 3
70 0 ?59 54 60 55 0 0 1 31 58 390 0 60 0 55 0 +-.01319822715367476 .00635 -.0076
2000000000015 0 1 0 0 0 1 .001473199999999986 16 60 369 0 ?61 57 0 58 0 0 1 17 6
1 0 62 61 61 0 63 60 0 0 +15 255 62 383 0 61 64 0 17 63 0 65 63 63 0 61 60 0 0 -
15 65 354 0 63 66 67 14 255 66 1 68 ?69 10 65 4 70 +0 0 69 10 15 15 67 312 0 71
 66 72 17 71 0 67 71 71 0 56 54 0 0 -15 72 261 0 73 66 74 17 73 0 72 73 73 0 50
 48 0 0 -15 74 214 0 75 66 76 17 75 0 74 75 75 0 44 42 0 0 -15 76 163 0 77 66 78
 17 77 0 76 77 77 0 38 36 0 0 -15 78 101 0 79 66 17 17 79 0 78 79 79 0 32 30 0 0
 -15 17 3 0 16 66 0 17 32 0 80 32 32 0 79 30 0 0 +15 80 129 0 32 81 0 14 81 125
 82 ?83 84 85 4 86 -0 0 83 84 15 81 255 1 82 454 87 81 88 0 68 89 90 14 83 180 8
9 ?91 81 92 4 93 -0 0 91 81 15 14 84 70 94 ?81 95 96 4 97 -0 0 81 95 15 15 85 12
8 0 98 81 80 51 86 134 0 81 93 97 0 +0 .00635 -.01524 0 1 0 .001473199999999986
 0 0 1 13 15 8 0 0 0 0 0 0 7 10 14 10 25 99 ?66 0 100 4 5 -0 0 66 0 15 81 1 99 4
57 87 10 101 0 94 102 103 15 100 24 0 18 10 104 17 18 0 100 18 18 0 16 8 0 0 -15
 104 26 0 19 10 0 17 19 0 104 19 19 0 105 13 0 0 +17 105 0 106 105 105 0 19 13 0
 0 -15 106 17 0 105 69 0 14 69 16 102 ?95 66 107 4 12 -0 0 95 66 15 81 1 102 458
 87 69 108 0 99 109 110 14 95 65 109 ?84 69 111 4 112 +0 0 84 69 15 15 107 361 0
 59 69 113 50 255 12 22 0 69 70 5 0 +0 0 0 0 1 0 0 0 1 50 70 2 0 66 112 12 0 +0
 .00635 0 0 1 0 0 0 1 51 112 78 0 95 97 70 0 -0 .00381 0 0 -1 0 .0116205 0 0 -1
 50 97 80 0 84 86 112 0 +0 .00381 0 0 1 0 0 0 1 17 59 0 107 59 59 0 114 57 0 0 +
15 113 303 0 53 69 115 17 53 0 113 53 53 0 116 51 0 0 +15 115 252 0 47 69 117 17
 47 0 115 47 47 0 118 45 0 0 +15 117 205 0 41 69 119 17 41 0 117 41 41 0 120 39
 0 0 +15 119 154 0 35 69 121 17 35 0 119 35 35 0 122 33 0 0 +15 121 108 0 29 69
 123 17 29 0 121 29 29 0 98 25 0 0 +15 123 54 0 24 69 106 17 24 0 123 24 24 0 12
4 22 0 0 +17 124 0 125 124 124 0 24 22 0 0 -15 125 69 0 124 95 0 17 98 0 85 98 9
8 0 29 25 0 0 -17 122 0 92 122 122 0 35 33 0 0 -15 92 183 0 122 83 126 15 126 18
4 0 38 83 0 17 38 0 126 38 38 0 77 36 0 0 +17 120 0 127 120 120 0 41 39 0 0 -15
 127 234 0 120 91 128 14 91 231 129 ?130 83 127 4 131 -0 0 130 83 15 15 128 235
 0 44 91 0 17 44 0 128 44 44 0 75 42 0 0 +81 1 129 460 87 91 132 0 109 133 134 1
4 130 278 133 ?135 91 136 4 137 -0 0 135 91 15 51 131 240 0 91 137 93 0 +.013198
2271536748 .00635 .00762 0 1 0 .001473199999999986 0 0 1 51 137 287 0 130 138 13
1 0 +0 .00635 .01524 0 1 0 .001473199999999986 0 0 1 51 93 189 0 83 131 86 0 +.0
1319822715367486 .00635 -.00762 0 1 0 .001473199999999986 0 0 1 51 138 337 0 135
 139 137 0 +-.01319822715367492 .00635 .00761999999999988 0 1 0 .001473199999999
986 0 0 1 14 135 328 140 ?64 130 141 4 138 -0 0 64 130 15 51 139 388 0 64 0 138
 0 +-.01319822715367476 .00635 -.00762000000000015 0 1 0 .001473199999999986 0 0
 1 14 64 379 142 ?0 135 143 4 139 -0 0 0 135 15 81 1 142 463 87 64 144 0 140 0 1
45 15 143 382 0 114 64 62 17 114 0 143 114 114 0 59 57 0 0 -80 255 1 87 146 147
 9000 1 1 1 1 1 1 1 1 0 FFFFTFTFFFFFFF1 81 1 144 428 148 64 0 142 149 0 150 81 1
 140 462 87 135 149 0 133 142 151 82 255 1 145 1301872783 81 1 149 427 148 135 0
 140 152 144 153 81 1 133 461 87 130 152 0 129 140 154 82 1 151 1283195023 81 1
 152 426 148 130 0 133 132 149 155 82 1 154 1264582799 80 1 148 0 156 8001 0 0 0
 0 3 5 0 0 0 FFFFTFTFFFFFFF2 81 1 132 425 148 91 0 129 157 152 158 83 255 3 155
 .537254901960784 .3490196078431375 .3372549019607845 81 1 157 424 148 83 0 89 8
8 132 159 83 3 158 .537254901960784 .3490196078431375 .3372549019607845 81 1 89
 455 87 83 157 0 82 94 160 81 1 88 423 148 81 0 82 161 157 162 83 3 159 .5372549
01960784 .3490196078431375 .3372549019607845 81 1 161 422 148 84 0 94 163 88 164
 83 3 162 .537254901960784 .3490196078431375 .3372549019607845 81 1 94 456 87 84
 161 0 89 99 165 81 1 163 421 148 95 0 109 108 161 166 83 3 164 .537254901960784
 .3490196078431375 .3372549019607845 81 1 109 459 87 95 163 0 102 129 167 81 1 1
08 420 148 69 0 102 168 163 169 83 3 166 .537254901960784 .3490196078431375 .337
2549019607845 81 1 168 419 148 66 0 68 101 108 170 83 3 169 .537254901960784 .34
90196078431375 .3372549019607845 81 1 68 453 87 66 168 0 0 82 171 81 1 101 418 1
48 10 0 99 0 168 172 83 3 170 .537254901960784 .3490196078431375 .33725490196078
45 83 3 172 .537254901960784 .3490196078431375 .3372549019607845 82 1 171 112309
0575 82 1 167 1191575693 82 1 165 1189609613 82 1 160 1227161743 79 255 15 156 S
DL/TYSA_COLOUR83 3 153 .537254901960784 .3490196078431375 .3372549019607845 83 3
 150 .537254901960784 .3490196078431375 .3372549019607845 79 14 147 SWEntUnchang
ed15 141 331 0 116 135 173 17 116 0 141 116 116 0 53 51 0 0 -15 173 332 0 56 135
 0 17 56 0 173 56 56 0 71 54 0 0 +15 136 281 0 118 130 174 17 118 0 136 118 118
 0 47 45 0 0 -15 174 282 0 50 130 0 17 50 0 174 50 50 0 73 48 0 0 +82 1 134 1245
970575 15 111 68 0 27 95 125 17 27 0 111 27 27 0 175 20 0 0 +17 175 0 96 175 175
 0 27 20 0 0 -15 96 72 0 175 84 0 82 1 110 1124991119 82 1 103 2005270659 82 1 9
0 1208025230 19 11 30 0 1 0 7 4 S0 74 4 CI16 index_map_offset0 0 1 dCCZ20 9 2 0
 0 142 144 0 0 0 0 0 0 0 0 0 0 0 0 0 0 0 0 0 0 1 0 
